<svg width="153" height="31" viewBox="0 0 153 31" fill="none" xmlns="http://www.w3.org/2000/svg">
<path d="M16.6395 6.768C14.1755 6.768 12.2875 7.52 10.9755 9.024C9.6635 10.528 9.0075 12.656 9.0075 15.408C9.0075 18.192 9.7275 20.336 11.1675 21.84C12.6395 23.344 14.6075 24.096 17.0715 24.096C18.3835 24.096 19.4875 23.92 20.3835 23.568C21.3115 23.216 22.1915 22.816 23.0235 22.368C23.5675 22.816 23.9835 23.36 24.2715 24C24.5915 24.608 24.7515 25.328 24.7515 26.16C24.7515 27.472 24.0155 28.592 22.5435 29.52C21.1035 30.416 18.8955 30.864 15.9195 30.864C13.7755 30.864 11.7595 30.56 9.8715 29.952C7.9835 29.344 6.3355 28.416 4.9275 27.168C3.5195 25.888 2.3995 24.288 1.5675 22.368C0.7675 20.416 0.3675 18.096 0.3675 15.408C0.3675 12.912 0.7515 10.72 1.5195 8.832C2.3195 6.912 3.3915 5.296 4.7355 3.984C6.1115 2.672 7.7115 1.68 9.5355 1.008C11.3595 0.335999 13.3115 0 15.3915 0C18.3355 0 20.6075 0.48 22.2075 1.44C23.8395 2.4 24.6555 3.632 24.6555 5.136C24.6555 5.968 24.4475 6.688 24.0315 7.296C23.6155 7.904 23.1355 8.384 22.5915 8.736C21.7595 8.192 20.8635 7.728 19.9035 7.344C18.9755 6.96 17.8875 6.768 16.6395 6.768ZM38.5894 24.816C39.1334 24.816 39.7254 24.768 40.3654 24.672C41.0374 24.544 41.5334 24.384 41.8534 24.192V20.352L38.3974 20.64C37.5014 20.704 36.7654 20.896 36.1894 21.216C35.6134 21.536 35.3254 22.016 35.3254 22.656C35.3254 23.296 35.5654 23.824 36.0454 24.24C36.5574 24.624 37.4054 24.816 38.5894 24.816ZM38.2054 5.952C39.9334 5.952 41.5014 6.128 42.9094 6.48C44.3494 6.832 45.5654 7.376 46.5574 8.112C47.5814 8.816 48.3654 9.728 48.9094 10.848C49.4534 11.936 49.7254 13.232 49.7254 14.736V25.488C49.7254 26.32 49.4854 27.008 49.0054 27.552C48.5574 28.064 48.0134 28.512 47.3734 28.896C45.2934 30.144 42.3654 30.768 38.5894 30.768C36.8934 30.768 35.3574 30.608 33.9814 30.288C32.6374 29.968 31.4694 29.488 30.4774 28.848C29.5174 28.208 28.7654 27.392 28.2214 26.4C27.7094 25.408 27.4534 24.256 27.4534 22.944C27.4534 20.736 28.1094 19.04 29.4214 17.856C30.7334 16.672 32.7654 15.936 35.5174 15.648L41.8054 14.976V14.64C41.8054 13.712 41.3894 13.056 40.5574 12.672C39.7574 12.256 38.5894 12.048 37.0534 12.048C35.8374 12.048 34.6534 12.176 33.5014 12.432C32.3494 12.688 31.3094 13.008 30.3814 13.392C29.9654 13.104 29.6134 12.672 29.3254 12.096C29.0374 11.488 28.8934 10.864 28.8934 10.224C28.8934 9.392 29.0854 8.736 29.4694 8.256C29.8854 7.744 30.5094 7.312 31.3414 6.96C32.2694 6.608 33.3574 6.352 34.6054 6.192C35.8854 6.032 37.0854 5.952 38.2054 5.952ZM63.6908 20.592V29.808C63.3388 29.904 62.7788 30 62.0108 30.096C61.2748 30.192 60.5388 30.24 59.8028 30.24C59.0668 30.24 58.4108 30.176 57.8348 30.048C57.2908 29.952 56.8268 29.76 56.4428 29.472C56.0908 29.184 55.8188 28.784 55.6268 28.272C55.4348 27.76 55.3388 27.088 55.3388 26.256V3.648C55.3388 2.976 55.5148 2.464 55.8668 2.112C56.2508 1.728 56.7628 1.424 57.4028 1.2C58.4908 0.815998 59.7548 0.543998 61.1948 0.383998C62.6348 0.191998 64.1708 0.0959988 65.8028 0.0959988C70.2188 0.0959988 73.5468 1.024 75.7868 2.88C78.0268 4.736 79.1468 7.248 79.1468 10.416C79.1468 12.4 78.6348 14.096 77.6108 15.504C76.5868 16.912 75.3708 18 73.9628 18.768C75.1148 20.336 76.2508 21.808 77.3708 23.184C78.4908 24.56 79.3708 25.808 80.0108 26.928C79.6908 28.048 79.0988 28.912 78.2348 29.52C77.4028 30.096 76.4588 30.384 75.4028 30.384C74.6988 30.384 74.0908 30.304 73.5788 30.144C73.0668 29.984 72.6188 29.76 72.2348 29.472C71.8508 29.184 71.4988 28.832 71.1788 28.416C70.8588 28 70.5548 27.552 70.2668 27.072L66.2348 20.592H63.6908ZM66.7148 14.208C67.9308 14.208 68.8908 13.904 69.5948 13.296C70.2988 12.656 70.6508 11.728 70.6508 10.512C70.6508 9.296 70.2508 8.384 69.4508 7.776C68.6828 7.136 67.4508 6.816 65.7548 6.816C65.2748 6.816 64.8908 6.832 64.6028 6.864C64.3148 6.896 63.9948 6.944 63.6428 7.008V14.208H66.7148ZM95.5976 30.768C93.7096 30.768 91.9496 30.512 90.3176 30C88.7176 29.456 87.3096 28.656 86.0936 27.6C84.9096 26.544 83.9656 25.216 83.2616 23.616C82.5896 22.016 82.2536 20.144 82.2536 18C82.2536 15.888 82.5896 14.08 83.2616 12.576C83.9656 11.04 84.8776 9.792 85.9976 8.832C87.1176 7.84 88.3976 7.12 89.8376 6.672C91.2776 6.192 92.7496 5.952 94.2536 5.952C95.9496 5.952 97.4856 6.208 98.8616 6.72C100.27 7.232 101.47 7.936 102.462 8.832C103.486 9.728 104.27 10.8 104.814 12.048C105.39 13.296 105.678 14.656 105.678 16.128C105.678 17.216 105.374 18.048 104.766 18.624C104.158 19.2 103.31 19.568 102.222 19.728L90.3656 21.504C90.7176 22.56 91.4376 23.36 92.5256 23.904C93.6136 24.416 94.8616 24.672 96.2696 24.672C97.5816 24.672 98.8136 24.512 99.9656 24.192C101.15 23.84 102.11 23.44 102.846 22.992C103.358 23.312 103.79 23.76 104.142 24.336C104.494 24.912 104.67 25.52 104.67 26.16C104.67 27.6 103.998 28.672 102.654 29.376C101.63 29.92 100.478 30.288 99.1976 30.48C97.9176 30.672 96.7176 30.768 95.5976 30.768ZM94.2536 11.904C93.4856 11.904 92.8136 12.032 92.2376 12.288C91.6936 12.544 91.2456 12.88 90.8936 13.296C90.5416 13.68 90.2696 14.128 90.0776 14.64C89.9176 15.12 89.8216 15.616 89.7896 16.128L97.9976 14.784C97.9016 14.144 97.5496 13.504 96.9416 12.864C96.3336 12.224 95.4376 11.904 94.2536 11.904ZM124.389 15.216C124.389 14.224 124.101 13.504 123.525 13.056C122.981 12.576 122.229 12.336 121.269 12.336C120.629 12.336 119.989 12.416 119.349 12.576C118.741 12.736 118.213 12.976 117.765 13.296V29.952C117.445 30.048 116.933 30.144 116.229 30.24C115.557 30.336 114.853 30.384 114.117 30.384C113.413 30.384 112.773 30.336 112.197 30.24C111.653 30.144 111.189 29.952 110.805 29.664C110.421 29.376 110.117 28.992 109.893 28.512C109.701 28 109.605 27.344 109.605 26.544V12.144C109.605 11.28 109.781 10.576 110.133 10.032C110.517 9.488 111.029 8.992 111.669 8.544C112.757 7.776 114.117 7.152 115.749 6.672C117.413 6.192 119.253 5.952 121.269 5.952C124.885 5.952 127.669 6.752 129.621 8.352C131.573 9.92 132.549 12.112 132.549 14.928V29.952C132.229 30.048 131.717 30.144 131.013 30.24C130.341 30.336 129.637 30.384 128.901 30.384C128.197 30.384 127.557 30.336 126.981 30.24C126.437 30.144 125.973 29.952 125.589 29.664C125.205 29.376 124.901 28.992 124.677 28.512C124.485 28 124.389 27.344 124.389 26.544V15.216ZM145.75 21.984C145.75 22.816 146.006 23.408 146.518 23.76C147.062 24.112 147.814 24.288 148.774 24.288C149.254 24.288 149.75 24.256 150.262 24.192C150.774 24.096 151.222 23.984 151.606 23.856C151.894 24.208 152.134 24.608 152.326 25.056C152.55 25.472 152.662 25.984 152.662 26.592C152.662 27.808 152.198 28.8 151.27 29.568C150.374 30.336 148.774 30.72 146.47 30.72C143.654 30.72 141.478 30.08 139.942 28.8C138.438 27.52 137.686 25.44 137.686 22.56V2.016C138.038 1.92 138.534 1.824 139.174 1.728C139.846 1.6 140.55 1.536 141.286 1.536C142.694 1.536 143.782 1.792 144.55 2.304C145.35 2.784 145.75 3.824 145.75 5.424V8.496H152.038C152.23 8.848 152.406 9.296 152.566 9.84C152.758 10.352 152.854 10.928 152.854 11.568C152.854 12.688 152.598 13.504 152.086 14.016C151.606 14.496 150.95 14.736 150.118 14.736H145.75V21.984Z" fill="#16161A"/>
</svg>
