<svg width="122" height="146" viewBox="0 0 122 146" fill="none" xmlns="http://www.w3.org/2000/svg">
<path d="M61.1381 70.1169C66.6014 70.1169 71.0302 65.6937 71.0302 60.2374C71.0302 54.7811 66.6014 50.3579 61.1381 50.3579C55.6748 50.3579 51.246 54.7811 51.246 60.2374C51.246 65.6937 55.6748 70.1169 61.1381 70.1169Z" fill="#16161A"/>
<path d="M61.3772 146L94.2025 113.216L80.2711 99.3027L60.998 118.551L41.7083 99.3192L27.7769 113.233L60.5858 146" fill="#16161A"/>
<path d="M113.344 29.6356C109.013 22.4095 103.23 16.1586 96.3585 11.2774C89.4872 6.39625 81.6772 2.99084 73.4217 1.27618C65.1661 -0.438483 56.6443 -0.425152 48.3941 1.31533C40.144 3.05581 32.3447 6.48563 25.4887 11.3883C18.6328 16.2909 12.8689 22.5599 8.56117 29.7995C4.25339 37.039 1.49522 45.0919 0.460777 53.4498C-0.573667 61.8076 0.138084 70.2889 2.5511 78.3582C4.96411 86.4274 9.02598 93.9095 14.4803 100.332L28.2468 86.5828C22.4834 79.2686 19.3558 70.2283 19.3686 60.9208C19.3686 49.894 23.7546 39.3189 31.5616 31.5218C39.3686 23.7247 49.9572 19.3444 60.998 19.3444C72.0387 19.3444 82.6273 23.7247 90.4343 31.5218C98.2414 39.3189 102.627 49.894 102.627 60.9208C102.642 70.2286 99.5142 79.2695 93.7491 86.5828L107.516 100.332C115.756 90.6309 120.749 78.597 121.794 65.9182C122.839 53.2395 119.884 40.552 113.344 29.6356V29.6356Z" fill="#16161A"/>
</svg>
